<svg width="227" height="68" viewBox="0 0 227 68" fill="none" xmlns="http://www.w3.org/2000/svg">
<path d="M22.488 43.808C23.4213 45.4133 23.888 46.9627 23.888 48.456C23.888 48.792 23.8507 49.0907 23.776 49.352C23.7387 49.6507 23.6827 49.9493 23.608 50.248C22.9733 50.1733 22.3013 50.1173 21.592 50.08C20.92 50.0427 20.2107 50.024 19.464 50.024C18.568 50.024 17.6533 50.0427 16.72 50.08C15.824 50.1547 14.816 50.248 13.696 50.36C12.576 50.472 11.3253 50.6213 9.944 50.808C8.56267 50.9947 6.95733 51.2373 5.128 51.536C4.26933 51.2373 3.41067 50.64 2.552 49.744C1.69333 48.8853 0.890667 47.84 0.144 46.608C0.517334 45.7867 0.984 44.7787 1.544 43.584C2.104 42.352 2.75733 40.8773 3.504 39.16C4.25067 37.4053 5.072 35.3707 5.968 33.056C6.90133 30.704 7.89067 27.9973 8.936 24.936C9.608 22.92 10.1867 21.1467 10.672 19.616C11.1573 18.0853 11.5867 16.6107 11.96 15.192C12.3707 13.736 12.7627 12.224 13.136 10.656C13.5093 9.088 13.92 7.27733 14.368 5.224C15.8613 5.52266 17.1493 6.08266 18.232 6.904C19.352 7.688 20.416 8.82666 21.424 10.32C21.1253 10.8053 20.7333 11.5893 20.248 12.672C19.7627 13.7547 19.184 15.08 18.512 16.648C17.8773 18.1787 17.168 19.9333 16.384 21.912C15.6 23.8533 14.7787 25.944 13.92 28.184C13.0987 30.3867 12.296 32.4587 11.512 34.4C10.728 36.3413 10.0187 38.096 9.384 39.664C8.78667 41.232 8.30133 42.576 7.928 43.696C7.55467 44.816 7.368 45.656 7.368 46.216C7.96533 46.1787 8.50667 46.1413 8.992 46.104C9.47733 46.0667 9.98133 46.0107 10.504 45.936C11.0267 45.824 11.5867 45.712 12.184 45.6C12.8187 45.4507 13.5653 45.264 14.424 45.04C15.1707 44.8533 15.8613 44.704 16.496 44.592C17.1307 44.4427 17.7467 44.3307 18.344 44.256C18.9787 44.144 19.6133 44.0693 20.248 44.032C20.92 43.9573 21.6667 43.8827 22.488 43.808ZM34.3228 17.544C34.0988 17.3573 33.8935 17.0587 33.7068 16.648C33.5201 16.2 33.4268 15.7893 33.4268 15.416C34.3601 13.848 35.0321 12.28 35.4428 10.712C35.8535 9.10666 36.0588 7.31466 36.0588 5.336C36.0588 3.84266 35.9468 2.2 35.7228 0.407999C36.6561 0.482665 37.5708 0.650665 38.4668 0.911999C39.4001 1.136 40.2215 1.43466 40.9308 1.808C41.6775 2.144 42.2935 2.55466 42.7788 3.04C43.2641 3.488 43.5628 3.936 43.6748 4.384C42.2561 10.6187 39.1388 15.0053 34.3228 17.544ZM70.6441 23.816C70.4947 26.1307 70.0841 28.128 69.4121 29.808C68.7401 31.4507 67.7694 32.9067 66.5001 34.176C65.2681 35.408 63.7561 36.528 61.9641 37.536C60.1721 38.544 58.0814 39.5147 55.6921 40.448C55.6921 40.672 55.6734 40.9147 55.6361 41.176C55.6361 41.4 55.6361 41.6427 55.6361 41.904C55.6361 42.3893 55.6734 42.8933 55.7481 43.416C55.8227 43.9387 55.9534 44.424 56.1401 44.872C56.3267 45.32 56.5881 45.6933 56.9241 45.992C57.2601 46.2533 57.6894 46.384 58.2121 46.384C59.2201 46.384 60.2094 46.16 61.1801 45.712C62.1507 45.264 63.0654 44.7227 63.9241 44.088C64.8201 43.416 65.6414 42.7067 66.3881 41.96C67.1721 41.176 67.8627 40.4667 68.4601 39.832C68.8334 40.168 69.1507 40.4853 69.4121 40.784C67.7321 43.024 65.8841 44.8907 63.8681 46.384C61.8894 47.84 60.0041 48.7733 58.2121 49.184C55.6361 48.8853 53.6201 47.952 52.1641 46.384C50.7454 44.7787 50.0361 42.856 50.0361 40.616C50.0361 39.0853 50.2414 37.536 50.6521 35.968C51.1001 34.3627 51.6974 32.832 52.4441 31.376C53.2281 29.8827 54.1241 28.4827 55.1321 27.176C56.1774 25.8693 57.2787 24.7307 58.4361 23.76C59.6307 22.7893 60.8441 22.024 62.0761 21.464C63.3454 20.904 64.5961 20.624 65.8281 20.624C67.5454 20.848 69.1507 21.912 70.6441 23.816ZM66.7801 25.664C65.7721 25.8133 64.7267 26.224 63.6441 26.896C62.5614 27.568 61.5347 28.464 60.5641 29.584C59.6307 30.704 58.7721 32.0107 57.9881 33.504C57.2041 34.9973 56.5881 36.6027 56.1401 38.32C59.1267 36.8267 61.6094 34.9973 63.5881 32.832C65.5667 30.6293 66.6307 28.24 66.7801 25.664ZM92.5567 24.712C92.5194 25.4213 92.3887 26.168 92.1647 26.952C91.978 27.6987 91.7354 28.3893 91.4367 29.024C91.138 29.6213 90.8207 30.1253 90.4847 30.536C90.1487 30.9467 89.8314 31.152 89.5327 31.152C89.122 31.1147 88.8794 30.8347 88.8047 30.312C88.8047 30.2 88.842 30.032 88.9167 29.808C89.0287 29.5467 89.1407 29.2667 89.2527 28.968C89.3647 28.6693 89.458 28.3707 89.5327 28.072C89.6447 27.7733 89.7007 27.512 89.7007 27.288C89.7007 26.7653 89.57 26.336 89.3087 26C89.0847 25.6267 88.7674 25.44 88.3567 25.44C86.8634 25.44 85.7247 26.3733 84.9407 28.24C84.1567 30.1067 83.7647 32.8507 83.7647 36.472C83.7647 36.8453 83.7834 37.0693 83.8207 37.144C84.6047 37.1067 85.2954 37.088 85.8927 37.088C86.5274 37.0507 87.1434 37.032 87.7407 37.032C87.778 37.1067 87.7967 37.256 87.7967 37.48C87.7967 37.816 87.722 38.0587 87.5727 38.208C86.714 38.3947 86.0234 38.5627 85.5007 38.712C85.0154 38.824 84.642 38.936 84.3807 39.048C84.1194 39.16 83.9514 39.2907 83.8767 39.44C83.8394 39.552 83.8207 39.72 83.8207 39.944C83.8207 40.2427 83.8207 40.5413 83.8207 40.84C83.858 41.1387 83.8767 41.512 83.8767 41.96C83.8767 45.096 83.018 47.616 81.3007 49.52C79.6207 51.424 77.2687 52.5253 74.2447 52.824C73.722 52.7867 73.1807 52.6373 72.6207 52.376C72.0607 52.1147 71.5194 51.7787 70.9967 51.368C70.5114 50.9573 70.082 50.4907 69.7087 49.968C69.3354 49.4827 69.074 48.9787 68.9247 48.456C68.9247 47.0373 69.2234 45.6933 69.8207 44.424C70.418 43.1173 71.2207 41.9787 72.2287 41.008C73.274 40 74.4874 39.1973 75.8687 38.6C77.2874 37.9653 78.818 37.592 80.4607 37.48C80.4607 36.5467 80.3674 35.632 80.1807 34.736C79.994 33.84 79.7887 32.9813 79.5647 32.16C79.378 31.3013 79.1914 30.48 79.0047 29.696C78.818 28.8747 78.7247 28.072 78.7247 27.288C78.7247 26.28 78.93 25.2907 79.3407 24.32C79.7514 23.312 80.2927 22.3973 80.9647 21.576C81.6367 20.7173 82.4207 19.9893 83.3167 19.392C84.2127 18.7947 85.146 18.384 86.1167 18.16C86.5274 18.272 87.0687 18.608 87.7407 19.168C88.45 19.6907 89.1407 20.288 89.8127 20.96C90.4847 21.632 91.082 22.3227 91.6047 23.032C92.1274 23.704 92.4447 24.264 92.5567 24.712ZM74.0767 50.248C74.9727 49.8747 75.8127 49.3333 76.5967 48.624C77.418 47.9147 78.1274 47.112 78.7247 46.216C79.322 45.32 79.7887 44.368 80.1247 43.36C80.498 42.352 80.6847 41.3627 80.6847 40.392C79.938 40.504 79.1167 40.8587 78.2207 41.456C77.3247 42.016 76.4847 42.7067 75.7007 43.528C74.9167 44.312 74.2634 45.1333 73.7407 45.992C73.218 46.8507 72.9567 47.5973 72.9567 48.232C72.9567 49.0533 73.33 49.7253 74.0767 50.248ZM88.5081 65.536C87.9854 65.3867 87.6867 64.8267 87.6121 63.856C87.4627 63.3707 87.3507 62.792 87.2761 62.12C87.2387 61.448 87.2201 60.6827 87.2201 59.824C87.2201 59.04 87.3507 57.9573 87.6121 56.576C87.8734 55.232 88.2281 53.7013 88.6761 51.984C89.1614 50.2667 89.7401 48.4187 90.4121 46.44C91.0841 44.424 91.8307 42.3893 92.6521 40.336C93.6601 37.76 94.5374 35.5387 95.2841 33.672C96.0307 31.768 96.6467 30.1253 97.1321 28.744C97.6547 27.3627 98.0654 26.224 98.3641 25.328C98.7001 24.432 98.9614 23.6667 99.1481 23.032C99.2974 22.584 99.5214 22.0427 99.8201 21.408C100.119 20.7733 100.455 20.1387 100.828 19.504C101.239 18.832 101.649 18.216 102.06 17.656C102.471 17.0587 102.844 16.6107 103.18 16.312C104.487 16.4987 105.719 16.8347 106.876 17.32C108.033 17.8053 108.743 18.272 109.004 18.72C108.481 19.2053 107.884 19.9707 107.212 21.016C106.54 22.024 105.887 23.144 105.252 24.376C104.617 25.5707 104.039 26.8027 103.516 28.072C102.993 29.3413 102.601 30.4613 102.34 31.432C102.713 30.7973 103.199 30.1067 103.796 29.36C104.393 28.6133 105.308 27.5867 106.54 26.28C107.921 24.8613 109.209 23.7787 110.404 23.032C111.636 22.248 112.7 21.856 113.596 21.856C115.015 21.856 116.172 22.248 117.068 23.032C118.001 23.816 118.468 24.824 118.468 26.056C118.468 28.744 118.02 31.4133 117.124 34.064C116.228 36.6773 114.94 39.048 113.26 41.176C112.625 41.9973 111.879 42.7813 111.02 43.528C110.161 44.2747 109.265 44.9467 108.332 45.544C107.399 46.104 106.484 46.552 105.588 46.888C104.692 47.224 103.889 47.392 103.18 47.392C102.508 47.392 101.911 47.2613 101.388 47C100.903 46.7013 100.567 46.3467 100.38 45.936C101.836 45.0773 103.255 43.8827 104.636 42.352C106.017 40.8213 107.287 39.0667 108.444 37.088C109.639 35.072 110.665 32.9067 111.524 30.592C112.42 28.2773 113.092 25.9253 113.54 23.536C112.121 24.2827 110.833 25.104 109.676 26C108.556 26.8587 107.436 27.9973 106.316 29.416C104.972 31.0587 103.908 32.384 103.124 33.392C102.34 34.4 101.687 35.2587 101.164 35.968C100.679 36.6773 100.268 37.3493 99.9321 37.984C99.6334 38.5813 99.2974 39.328 98.9241 40.224C98.4014 41.4187 97.7854 43.0053 97.0761 44.984C96.4041 46.9253 95.6947 49.1093 94.9481 51.536C94.2387 53.9627 93.5107 56.5387 92.7641 59.264C92.0547 62.0267 91.3641 64.7707 90.6921 67.496C90.2814 67.4213 89.9267 67.1227 89.6281 66.6C89.3294 66.264 89.1054 66.0213 88.9561 65.872C88.8441 65.7227 88.6947 65.6107 88.5081 65.536ZM119.143 45.88C119.329 44.7973 119.647 43.3787 120.095 41.624C120.58 39.832 121.14 37.9467 121.775 35.968C122.409 33.952 123.081 31.936 123.791 29.92C124.5 27.904 125.191 26.0933 125.863 24.488C126.348 23.3307 126.777 22.4347 127.151 21.8C127.524 21.128 127.935 20.568 128.383 20.12C128.905 20.1947 129.447 20.3253 130.007 20.512C130.567 20.6987 131.108 20.9227 131.631 21.184C132.153 21.4453 132.62 21.7253 133.031 22.024C133.441 22.2853 133.759 22.5467 133.983 22.808C132.975 24.0027 132.079 25.3653 131.295 26.896C130.548 28.4267 129.783 30.3867 128.999 32.776C131.015 30.984 132.788 29.2667 134.319 27.624C135.887 25.9813 137.343 24.152 138.687 22.136C138.911 21.9493 139.303 21.856 139.863 21.856C140.385 21.856 140.889 21.9493 141.375 22.136C141.86 22.2853 142.196 22.5093 142.383 22.808C141.711 24.6 141.375 26.3733 141.375 28.128C141.375 29.7707 141.617 31.0027 142.103 31.824C142.065 32.048 141.804 32.4773 141.319 33.112C140.871 33.7467 140.367 34.344 139.807 34.904C138.799 34.3813 137.903 33.672 137.119 32.776C136.335 31.8427 135.756 30.8347 135.383 29.752C133.628 30.984 132.135 32.1973 130.903 33.392C129.671 34.5493 128.607 35.856 127.711 37.312C126.852 38.7307 126.105 40.3733 125.471 42.24C124.873 44.1067 124.295 46.328 123.735 48.904C123.399 48.8667 122.988 48.736 122.503 48.512C122.055 48.3253 121.588 48.0827 121.103 47.784C120.655 47.4853 120.244 47.168 119.871 46.832C119.497 46.496 119.255 46.1787 119.143 45.88ZM163.121 23.816C162.971 26.1307 162.561 28.128 161.889 29.808C161.217 31.4507 160.246 32.9067 158.977 34.176C157.745 35.408 156.233 36.528 154.441 37.536C152.649 38.544 150.558 39.5147 148.169 40.448C148.169 40.672 148.15 40.9147 148.113 41.176C148.113 41.4 148.113 41.6427 148.113 41.904C148.113 42.3893 148.15 42.8933 148.225 43.416C148.299 43.9387 148.43 44.424 148.617 44.872C148.803 45.32 149.065 45.6933 149.401 45.992C149.737 46.2533 150.166 46.384 150.689 46.384C151.697 46.384 152.686 46.16 153.657 45.712C154.627 45.264 155.542 44.7227 156.401 44.088C157.297 43.416 158.118 42.7067 158.865 41.96C159.649 41.176 160.339 40.4667 160.937 39.832C161.31 40.168 161.627 40.4853 161.889 40.784C160.209 43.024 158.361 44.8907 156.345 46.384C154.366 47.84 152.481 48.7733 150.689 49.184C148.113 48.8853 146.097 47.952 144.641 46.384C143.222 44.7787 142.513 42.856 142.513 40.616C142.513 39.0853 142.718 37.536 143.129 35.968C143.577 34.3627 144.174 32.832 144.921 31.376C145.705 29.8827 146.601 28.4827 147.609 27.176C148.654 25.8693 149.755 24.7307 150.913 23.76C152.107 22.7893 153.321 22.024 154.553 21.464C155.822 20.904 157.073 20.624 158.305 20.624C160.022 20.848 161.627 21.912 163.121 23.816ZM159.257 25.664C158.249 25.8133 157.203 26.224 156.121 26.896C155.038 27.568 154.011 28.464 153.041 29.584C152.107 30.704 151.249 32.0107 150.465 33.504C149.681 34.9973 149.065 36.6027 148.617 38.32C151.603 36.8267 154.086 34.9973 156.065 32.832C158.043 30.6293 159.107 28.24 159.257 25.664ZM185.033 24.712C184.996 25.4213 184.865 26.168 184.641 26.952C184.455 27.6987 184.212 28.3893 183.913 29.024C183.615 29.6213 183.297 30.1253 182.961 30.536C182.625 30.9467 182.308 31.152 182.009 31.152C181.599 31.1147 181.356 30.8347 181.281 30.312C181.281 30.2 181.319 30.032 181.393 29.808C181.505 29.5467 181.617 29.2667 181.729 28.968C181.841 28.6693 181.935 28.3707 182.009 28.072C182.121 27.7733 182.177 27.512 182.177 27.288C182.177 26.7653 182.047 26.336 181.785 26C181.561 25.6267 181.244 25.44 180.833 25.44C179.34 25.44 178.201 26.3733 177.417 28.24C176.633 30.1067 176.241 32.8507 176.241 36.472C176.241 36.8453 176.26 37.0693 176.297 37.144C177.081 37.1067 177.772 37.088 178.369 37.088C179.004 37.0507 179.62 37.032 180.217 37.032C180.255 37.1067 180.273 37.256 180.273 37.48C180.273 37.816 180.199 38.0587 180.049 38.208C179.191 38.3947 178.5 38.5627 177.977 38.712C177.492 38.824 177.119 38.936 176.857 39.048C176.596 39.16 176.428 39.2907 176.353 39.44C176.316 39.552 176.297 39.72 176.297 39.944C176.297 40.2427 176.297 40.5413 176.297 40.84C176.335 41.1387 176.353 41.512 176.353 41.96C176.353 45.096 175.495 47.616 173.777 49.52C172.097 51.424 169.745 52.5253 166.721 52.824C166.199 52.7867 165.657 52.6373 165.097 52.376C164.537 52.1147 163.996 51.7787 163.473 51.368C162.988 50.9573 162.559 50.4907 162.185 49.968C161.812 49.4827 161.551 48.9787 161.401 48.456C161.401 47.0373 161.7 45.6933 162.297 44.424C162.895 43.1173 163.697 41.9787 164.705 41.008C165.751 40 166.964 39.1973 168.345 38.6C169.764 37.9653 171.295 37.592 172.937 37.48C172.937 36.5467 172.844 35.632 172.657 34.736C172.471 33.84 172.265 32.9813 172.041 32.16C171.855 31.3013 171.668 30.48 171.481 29.696C171.295 28.8747 171.201 28.072 171.201 27.288C171.201 26.28 171.407 25.2907 171.817 24.32C172.228 23.312 172.769 22.3973 173.441 21.576C174.113 20.7173 174.897 19.9893 175.793 19.392C176.689 18.7947 177.623 18.384 178.593 18.16C179.004 18.272 179.545 18.608 180.217 19.168C180.927 19.6907 181.617 20.288 182.289 20.96C182.961 21.632 183.559 22.3227 184.081 23.032C184.604 23.704 184.921 24.264 185.033 24.712ZM166.553 50.248C167.449 49.8747 168.289 49.3333 169.073 48.624C169.895 47.9147 170.604 47.112 171.201 46.216C171.799 45.32 172.265 44.368 172.601 43.36C172.975 42.352 173.161 41.3627 173.161 40.392C172.415 40.504 171.593 40.8587 170.697 41.456C169.801 42.016 168.961 42.7067 168.177 43.528C167.393 44.312 166.74 45.1333 166.217 45.992C165.695 46.8507 165.433 47.5973 165.433 48.232C165.433 49.0533 165.807 49.7253 166.553 50.248ZM204.393 24.712C204.355 25.4213 204.225 26.168 204.001 26.952C203.814 27.6987 203.571 28.3893 203.273 29.024C202.974 29.6213 202.657 30.1253 202.321 30.536C201.985 30.9467 201.667 31.152 201.369 31.152C200.958 31.1147 200.715 30.8347 200.641 30.312C200.641 30.2 200.678 30.032 200.753 29.808C200.865 29.5467 200.977 29.2667 201.089 28.968C201.201 28.6693 201.294 28.3707 201.369 28.072C201.481 27.7733 201.537 27.512 201.537 27.288C201.537 26.7653 201.406 26.336 201.145 26C200.921 25.6267 200.603 25.44 200.193 25.44C198.699 25.44 197.561 26.3733 196.777 28.24C195.993 30.1067 195.601 32.8507 195.601 36.472C195.601 36.8453 195.619 37.0693 195.657 37.144C196.441 37.1067 197.131 37.088 197.729 37.088C198.363 37.0507 198.979 37.032 199.577 37.032C199.614 37.1067 199.633 37.256 199.633 37.48C199.633 37.816 199.558 38.0587 199.409 38.208C198.55 38.3947 197.859 38.5627 197.337 38.712C196.851 38.824 196.478 38.936 196.217 39.048C195.955 39.16 195.787 39.2907 195.713 39.44C195.675 39.552 195.657 39.72 195.657 39.944C195.657 40.2427 195.657 40.5413 195.657 40.84C195.694 41.1387 195.713 41.512 195.713 41.96C195.713 45.096 194.854 47.616 193.137 49.52C191.457 51.424 189.105 52.5253 186.081 52.824C185.558 52.7867 185.017 52.6373 184.457 52.376C183.897 52.1147 183.355 51.7787 182.833 51.368C182.347 50.9573 181.918 50.4907 181.545 49.968C181.171 49.4827 180.91 48.9787 180.761 48.456C180.761 47.0373 181.059 45.6933 181.657 44.424C182.254 43.1173 183.057 41.9787 184.065 41.008C185.11 40 186.323 39.1973 187.705 38.6C189.123 37.9653 190.654 37.592 192.297 37.48C192.297 36.5467 192.203 35.632 192.017 34.736C191.83 33.84 191.625 32.9813 191.401 32.16C191.214 31.3013 191.027 30.48 190.841 29.696C190.654 28.8747 190.561 28.072 190.561 27.288C190.561 26.28 190.766 25.2907 191.177 24.32C191.587 23.312 192.129 22.3973 192.801 21.576C193.473 20.7173 194.257 19.9893 195.153 19.392C196.049 18.7947 196.982 18.384 197.953 18.16C198.363 18.272 198.905 18.608 199.577 19.168C200.286 19.6907 200.977 20.288 201.649 20.96C202.321 21.632 202.918 22.3227 203.441 23.032C203.963 23.704 204.281 24.264 204.393 24.712ZM185.913 50.248C186.809 49.8747 187.649 49.3333 188.433 48.624C189.254 47.9147 189.963 47.112 190.561 46.216C191.158 45.32 191.625 44.368 191.961 43.36C192.334 42.352 192.521 41.3627 192.521 40.392C191.774 40.504 190.953 40.8587 190.057 41.456C189.161 42.016 188.321 42.7067 187.537 43.528C186.753 44.312 186.099 45.1333 185.577 45.992C185.054 46.8507 184.793 47.5973 184.793 48.232C184.793 49.0533 185.166 49.7253 185.913 50.248ZM211.04 48.96C208.912 48.736 207.213 47.8027 205.944 46.16C204.675 44.5173 204.04 42.4267 204.04 39.888C204.04 38.3947 204.264 36.8453 204.712 35.24C205.16 33.6347 205.795 32.0853 206.616 30.592C207.437 29.0613 208.408 27.624 209.528 26.28C210.648 24.936 211.861 23.7787 213.168 22.808C215.221 21.2773 217.144 20.512 218.936 20.512C220.131 21.1467 221.307 22.472 222.464 24.488C222.651 24.488 222.819 24.488 222.968 24.488C223.117 24.4507 223.285 24.432 223.472 24.432C225.451 24.432 226.44 26.1867 226.44 29.696C226.44 32.048 226.048 34.288 225.264 36.416C224.517 38.5067 223.453 40.4107 222.072 42.128C220.728 43.8453 219.104 45.3013 217.2 46.496C215.333 47.6533 213.28 48.4747 211.04 48.96ZM213.896 31.32C213.261 32.1787 212.664 33.112 212.104 34.12C211.544 35.128 211.059 36.1547 210.648 37.2C210.237 38.208 209.92 39.1973 209.696 40.168C209.472 41.1013 209.36 41.9413 209.36 42.688C209.36 43.584 209.509 44.4427 209.808 45.264C210.107 46.0853 210.443 46.552 210.816 46.664C212.496 46.2907 214.027 45.6 215.408 44.592C216.827 43.5467 218.04 42.2587 219.048 40.728C220.093 39.1973 220.896 37.4613 221.456 35.52C222.053 33.5787 222.352 31.5067 222.352 29.304C222.352 28.3333 222.296 27.568 222.184 27.008C222.072 26.448 221.885 25.9627 221.624 25.552C219.981 26.0373 218.507 26.8213 217.2 27.904C215.931 28.9867 214.829 30.1253 213.896 31.32Z" fill="#C5A854"/>
</svg>
